HIERARCHY
ROOT Hips
{
	OFFSET 0.000000 0.000000 0.000000
	CHANNELS 6 Xposition Yposition Zposition Zrotation Yrotation Xrotation 
	JOINT LowerBack
	{
		OFFSET 0.000000 0.000000 0.000000
		CHANNELS 3 Zrotation Yrotation Xrotation
		JOINT Spine
		{
			OFFSET 0.028270 2.035590 -0.193380
			CHANNELS 3 Zrotation Yrotation Xrotation
			JOINT Spine1
			{
				OFFSET 0.056720 2.048850 -0.042750
				CHANNELS 3 Zrotation Yrotation Xrotation
				JOINT Neck
				{
					OFFSET 0.000000 0.000000 0.000000
					CHANNELS 3 Zrotation Yrotation Xrotation
					JOINT Neck1
					{
						OFFSET -0.054170 1.746240 0.172020
						CHANNELS 3 Zrotation Yrotation Xrotation
						JOINT Head
						{
							OFFSET 0.104070 1.761360 -0.123970
							CHANNELS 3 Zrotation Yrotation Xrotation
							End Site
							{
								OFFSET 0.000000 0.000000 0.000000
							}
						}
					}
				}
				JOINT LeftShoulder
				{
					OFFSET 0.000000 0.000000 0.000000
					CHANNELS 3 Zrotation Yrotation Xrotation
					JOINT LeftArm
					{
						OFFSET 3.362410 1.200890 -0.311210
						CHANNELS 3 Zrotation Yrotation Xrotation
						JOINT LeftForeArm
						{
							OFFSET 4.983000 -0.000000 -0.000000
							CHANNELS 3 Zrotation Yrotation Xrotation
							JOINT LeftHand
							{
								OFFSET 3.483560 -0.000000 -0.000000
								CHANNELS 3 Zrotation Yrotation Xrotation
								JOINT LeftFingerBase
								{
									OFFSET 0.000000 0.000000 0.000000
									CHANNELS 3 Zrotation Yrotation Xrotation
									JOINT LeftHandIndex1
									{
										OFFSET 0.715260 -0.000000 -0.000000
										CHANNELS 3 Zrotation Yrotation Xrotation
										End Site
										{
											OFFSET 0.000000 0.000000 0.000000
										}
									}
								}
								JOINT LThumb
								{
									OFFSET 0.000000 0.000000 0.000000
									CHANNELS 3 Zrotation Yrotation Xrotation
									End Site
									{
										OFFSET 0.000000 0.000000 0.000000
									}
								}
							}
						}
					}
				}
				JOINT RightShoulder
				{
					OFFSET 0.000000 0.000000 0.000000
					CHANNELS 3 Zrotation Yrotation Xrotation
					JOINT RightArm
					{
						OFFSET -3.136600 1.374050 -0.404650
						CHANNELS 3 Zrotation Yrotation Xrotation
						JOINT RightForeArm
						{
							OFFSET -5.241900 -0.000000 -0.000000
							CHANNELS 3 Zrotation Yrotation Xrotation
							JOINT RightHand
							{
								OFFSET -3.444170 -0.000000 -0.000000
								CHANNELS 3 Zrotation Yrotation Xrotation
								JOINT RightFingerBase
								{
									OFFSET 0.000000 0.000000 0.000000
									CHANNELS 3 Zrotation Yrotation Xrotation
									JOINT RightHandIndex1
									{
										OFFSET -0.622530 -0.000000 -0.000000
										CHANNELS 3 Zrotation Yrotation Xrotation
										End Site
										{
											OFFSET 0.000000 0.000000 0.000000
										}
									}
								}
								JOINT RThumb
								{
									OFFSET 0.000000 0.000000 0.000000
									CHANNELS 3 Zrotation Yrotation Xrotation
									End Site
									{
										OFFSET 0.000000 0.000000 0.000000
									}
								}
							}
						}
					}
				}
			}
		}
	}
}
}
MOTION
Frames: 17
Frame Time: 0.008333
2.339665 17.208494 -1.216160 129.001543 -85.599383 -122.061210 -0.469111 -1.836072 2.901904 -0.432440 -1.747995 -2.425582 -4.624590 -1.766599 -0.413140 6.221977 -13.013172 -8.026432 -1.421071 -0.101186 -0.108453 0.000000 0.000000 0.000000 2.178921 7.656905 0.752335 -53.010672 19.755728 32.682955 -1.155345 -71.732058 0.007215 -6.048678 -7.979081 0.430926 0.034917 0.109485 0.000000 0.000000 0.000000 0.000000 0.000000 0.000000 0.000000 4.181338 -8.305835 0.836380 60.343665 -3.653325 26.925270 1.398017 58.524277 0.003712 -5.816809 7.366071 -0.391199 0.140589 -0.165997 0.000000 0.000000 0.000000 0.000000 0.000000 0.000000 0.000000 
2.361290 17.211212 -1.252843 127.783113 -85.357370 -121.143951 -0.659026 -1.808959 2.965696 -0.467305 -1.709325 -2.424888 -4.589302 -1.729111 -0.480722 6.122685 -12.885764 -7.919065 -1.412823 -0.102205 -0.079120 0.000000 0.000000 0.000000 2.346616 7.341496 0.714283 -53.258273 20.166236 32.751323 -1.147271 -71.745836 0.006631 -6.084459 -8.005101 0.434987 0.038579 0.108996 0.000000 0.000000 0.000000 0.000000 0.000000 0.000000 0.000000 4.018687 -8.157763 0.858599 60.361621 -3.317396 27.048303 1.402666 58.294688 0.003642 -5.813537 7.346550 -0.390004 0.140556 -0.166215 0.000000 0.000000 0.000000 0.000000 0.000000 0.000000 0.000000 
2.383518 17.214008 -1.288851 126.407820 -85.107422 -120.057934 -0.868180 -1.788648 3.025482 -0.505570 -1.676513 -2.424506 -4.553130 -1.697491 -0.548169 6.021228 -12.761683 -7.812158 -1.403831 -0.103153 -0.049978 0.000000 0.000000 0.000000 2.520109 7.020519 0.674928 -53.494925 20.592123 32.823971 -1.136812 -71.807454 0.006034 -6.126737 -8.037439 0.439948 0.042544 0.108792 0.000000 0.000000 0.000000 0.000000 0.000000 0.000000 0.000000 3.853986 -8.015583 0.881795 60.364949 -2.940625 27.199507 1.406681 58.070643 0.003571 -5.811275 7.327455 -0.388907 0.140612 -0.166507 0.000000 0.000000 0.000000 0.000000 0.000000 0.000000 0.000000 
2.406130 17.216782 -1.324149 124.914613 -84.850152 -118.841481 -1.095348 -1.775288 3.082251 -0.546960 -1.649730 -2.424247 -4.516316 -1.671901 -0.615173 5.917307 -12.638209 -7.705576 -1.394160 -0.104037 -0.021003 0.000000 0.000000 0.000000 2.697000 6.699003 0.634992 -53.715147 21.025951 32.902242 -1.124145 -71.916055 0.005431 -6.173588 -8.075391 0.445708 0.046738 0.108876 0.000000 0.000000 0.000000 0.000000 0.000000 0.000000 0.000000 3.686505 -7.876443 0.904930 60.356498 -2.530004 27.370062 1.409597 57.856279 0.003492 -5.814205 7.307176 -0.388010 0.140776 -0.166885 0.000000 0.000000 0.000000 0.000000 0.000000 0.000000 0.000000 
2.429041 17.219351 -1.358593 123.361251 -84.588951 -117.554038 -1.335398 -1.768351 3.136560 -0.590311 -1.628691 -2.423736 -4.478515 -1.652026 -0.680173 5.810283 -12.516779 -7.600170 -1.383390 -0.104810 0.007571 0.000000 0.000000 0.000000 2.876015 6.385155 0.594872 -53.917517 21.453541 32.989419 -1.109647 -72.064066 0.004837 -6.221905 -8.118937 0.451867 0.051064 0.109269 0.000000 0.000000 0.000000 0.000000 0.000000 0.000000 0.000000 3.513815 -7.741932 0.926714 60.339062 -2.087593 27.555855 1.410988 57.652784 0.003386 -5.828379 7.285011 -0.387911 0.141094 -0.167351 0.000000 0.000000 0.000000 0.000000 0.000000 0.000000 0.000000 
2.451971 17.221674 -1.392167 121.776345 -84.326880 -116.223022 -1.584866 -1.767361 3.188983 -0.634971 -1.613098 -2.422798 -4.439949 -1.637553 -0.742348 5.700756 -12.397710 -7.495925 -1.371557 -0.105475 0.035753 0.000000 0.000000 0.000000 3.056817 6.081938 0.554897 -54.101714 21.866847 33.084735 -1.093706 -72.244166 0.004253 -6.269175 -8.166991 0.458226 0.055438 0.109956 0.000000 0.000000 0.000000 0.000000 0.000000 0.000000 0.000000 3.336261 -7.612555 0.946371 60.315194 -1.618808 27.748900 1.410654 57.461950 0.003244 -5.857077 7.259663 -0.388513 0.141586 -0.167905 0.000000 0.000000 0.000000 0.000000 0.000000 0.000000 0.000000 
2.474983 17.223709 -1.425035 120.146316 -84.065662 -114.839410 -1.845211 -1.772287 3.242012 -0.681449 -1.602827 -2.421165 -4.401485 -1.628335 -0.802199 5.591383 -12.280017 -7.391674 -1.359047 -0.106081 0.063860 0.000000 0.000000 0.000000 3.242042 5.786437 0.515183 -54.268187 22.263020 33.184040 -1.076733 -72.448126 0.003687 -6.312759 -8.218003 0.464586 0.059796 0.110886 0.000000 0.000000 0.000000 0.000000 0.000000 0.000000 0.000000 3.157412 -7.487320 0.963350 60.288773 -1.132903 27.939144 1.408392 57.285974 0.003056 -5.901414 7.230222 -0.389914 0.142235 -0.168554 0.000000 0.000000 0.000000 0.000000 0.000000 0.000000 0.000000 
2.497804 17.225437 -1.457245 118.484051 -83.809624 -113.414035 -2.113540 -1.782504 3.294663 -0.729341 -1.597471 -2.418874 -4.363578 -1.623950 -0.858585 5.484409 -12.166945 -7.287648 -1.345865 -0.106627 0.091856 0.000000 0.000000 0.000000 3.434961 5.498326 0.475666 -54.420887 22.635885 33.283927 -1.059250 -72.664452 0.003134 -6.350829 -8.270116 0.470546 0.064068 0.112014 0.000000 0.000000 0.000000 0.000000 0.000000 0.000000 0.000000 2.979623 -7.369866 0.977367 60.262155 -0.632740 28.120556 1.404359 57.124031 0.002819 -5.961390 7.196096 -0.392014 0.143043 -0.169291 0.000000 0.000000 0.000000 0.000000 0.000000 0.000000 0.000000 
2.520473 17.226858 -1.488971 116.781294 -83.562008 -111.940185 -2.389707 -1.797601 3.346832 -0.778884 -1.596685 -2.415942 -4.327008 -1.624036 -0.911181 5.383327 -12.061703 -7.183738 -1.332129 -0.107126 0.119796 0.000000 0.000000 0.000000 3.640568 5.213564 0.436062 -54.564852 22.983132 33.378564 -1.041739 -72.882051 0.002605 -6.381339 -8.321686 0.476110 0.068199 0.113285 0.000000 0.000000 0.000000 0.000000 0.000000 0.000000 0.000000 2.806856 -7.263535 0.988463 60.238993 -0.122049 28.287584 1.398806 56.974596 0.002540 -6.035426 7.157685 -0.394816 0.143988 -0.170115 0.000000 0.000000 0.000000 0.000000 0.000000 0.000000 0.000000 
2.542827 17.228039 -1.520417 115.025400 -83.325651 -110.401846 -2.674414 -1.817384 3.397201 -0.830544 -1.600329 -2.412565 -4.292768 -1.628449 -0.959474 5.291995 -11.967618 -7.079985 -1.318038 -0.107597 0.147697 0.000000 0.000000 0.000000 3.864360 4.926895 0.396180 -54.705472 23.304637 33.461995 -1.024696 -73.090326 0.002089 -6.403429 -8.370585 0.480874 0.072148 0.114625 0.000000 0.000000 0.000000 0.000000 0.000000 0.000000 0.000000 2.643875 -7.172032 0.997029 60.222437 0.396018 28.434747 1.392177 56.835547 0.002218 -6.120349 7.115692 -0.398114 0.145043 -0.171024 0.000000 0.000000 0.000000 0.000000 0.000000 0.000000 0.000000 
2.564930 17.228971 -1.551867 113.190716 -83.102030 -108.773044 -2.970477 -1.841981 3.444991 -0.885239 -1.608470 -2.408976 -4.261984 -1.637256 -1.003797 5.214755 -11.887091 -6.976285 -1.303805 -0.108061 0.175608 0.000000 0.000000 0.000000 4.112755 4.630603 0.355846 -54.848035 23.602992 33.526376 -1.008522 -73.281227 0.001594 -6.417215 -8.415080 0.484740 0.075900 0.115966 0.000000 0.000000 0.000000 0.000000 0.000000 0.000000 0.000000 2.495707 -7.097642 1.003671 60.216925 0.915792 28.555530 1.384927 56.705556 0.001871 -6.210916 7.071405 -0.401513 0.146153 -0.172028 0.000000 0.000000 0.000000 0.000000 0.000000 0.000000 0.000000 
2.586815 17.229669 -1.583455 111.275078 -82.893692 -107.047685 -3.276480 -1.871121 3.487729 -0.942845 -1.621005 -2.405376 -4.234967 -1.650350 -1.043044 5.154032 -11.825545 -6.874255 -1.289089 -0.108467 0.203108 0.000000 0.000000 0.000000 4.389867 4.322759 0.315016 -54.997658 23.874926 33.569280 -0.993572 -73.445848 0.001114 -6.421938 -8.453810 0.487608 0.079415 0.117270 0.000000 0.000000 0.000000 0.000000 0.000000 0.000000 0.000000 2.363795 -7.045904 1.008954 60.226154 1.438628 28.649755 1.377591 56.580913 0.001503 -6.303749 7.026723 -0.405012 0.147295 -0.173125 0.000000 0.000000 0.000000 0.000000 0.000000 0.000000 0.000000 
2.608530 17.230133 -1.615342 109.265153 -82.701387 -105.210031 -3.593315 -1.904885 3.524850 -1.003742 -1.638032 -2.401876 -4.212328 -1.667829 -1.077388 5.112108 -11.784426 -6.774627 -1.273831 -0.108801 0.229988 0.000000 0.000000 0.000000 4.698650 3.999250 0.273984 -55.157400 24.120586 33.587684 -0.980088 -73.579701 0.000658 -6.418207 -8.485910 0.489380 0.082683 0.118501 0.000000 0.000000 0.000000 0.000000 0.000000 0.000000 0.000000 2.249784 -7.017920 1.013495 60.253926 1.960541 28.713138 1.370545 56.461133 0.001128 -6.394299 6.983631 -0.408411 0.148421 -0.174336 0.000000 0.000000 0.000000 0.000000 0.000000 0.000000 0.000000 
2.630223 17.230288 -1.647699 107.144510 -82.522335 -103.243648 -3.924358 -1.943313 3.557701 -1.068825 -1.659463 -2.398513 -4.194765 -1.689603 -1.108257 5.090748 -11.762123 -6.677497 -1.258091 -0.109064 0.256187 0.000000 0.000000 0.000000 5.041010 3.654269 0.233210 -55.327205 24.343870 33.579534 -0.968099 -73.683141 0.000217 -6.407799 -8.510318 0.490250 0.085726 0.119620 0.000000 0.000000 0.000000 0.000000 0.000000 0.000000 0.000000 2.154838 -7.011059 1.017943 60.304482 2.471758 28.739329 1.363930 56.349476 0.000749 -6.477242 6.943491 -0.411409 0.149455 -0.175691 0.000000 0.000000 0.000000 0.000000 0.000000 0.000000 0.000000 
2.651863 17.230094 -1.680737 104.902664 -82.348708 -101.138082 -4.276725 -1.986522 3.587995 -1.139727 -1.685110 -2.395185 -4.183031 -1.715472 -1.136784 5.091869 -11.757423 -6.583504 -1.242002 -0.109253 0.281479 0.000000 0.000000 0.000000 5.415990 3.285722 0.193147 -55.501388 24.546925 33.548209 -0.957446 -73.760331 -0.000205 -6.391988 -8.525579 0.490223 0.088570 0.120584 0.000000 0.000000 0.000000 0.000000 0.000000 0.000000 0.000000 2.081269 -7.023265 1.022685 60.379808 2.963158 28.724656 1.357647 56.251312 0.000375 -6.549131 6.907173 -0.413907 0.150341 -0.177222 0.000000 0.000000 0.000000 0.000000 0.000000 0.000000 0.000000 
2.673620 17.229429 -1.713747 102.611420 -82.192275 -98.963194 -4.628816 -2.032233 3.618476 -1.211466 -1.713764 -2.390931 -4.174363 -1.744153 -1.161143 5.106793 -11.772368 -6.495744 -1.223857 -0.109183 0.304930 0.000000 0.000000 0.000000 5.814236 2.906137 0.155222 -55.682590 24.710212 33.504179 -0.948261 -73.806263 -0.000593 -6.370441 -8.535956 0.489399 0.091148 0.121527 0.000000 0.000000 0.000000 0.000000 0.000000 0.000000 0.000000 2.012077 -7.055690 1.027537 60.480989 3.440105 28.676329 1.351637 56.165857 -0.000001 -6.613728 6.877569 -0.416304 0.151120 -0.178938 0.000000 0.000000 0.000000 0.000000 0.000000 0.000000 0.000000 
2.695718 17.228146 -1.746543 100.284421 -82.049853 -96.738384 -4.979031 -2.079344 3.655354 -1.283646 -1.744404 -2.384988 -4.168460 -1.774560 -1.183182 5.132746 -11.800617 -6.414087 -1.203621 -0.108845 0.326465 0.000000 0.000000 0.000000 6.228943 2.518607 0.120583 -55.863015 24.829852 33.457049 -0.940261 -73.826657 -0.000945 -6.344041 -8.542329 0.487977 0.093475 0.122472 0.000000 0.000000 0.000000 0.000000 0.000000 0.000000 0.000000 1.942907 -7.100332 1.032294 60.607636 3.889778 28.589779 1.345306 56.102714 -0.000380 -6.669696 6.854441 -0.418604 0.151729 -0.180876 0.000000 0.000000 0.000000 0.000000 0.000000 0.000000 0.000000 
